PathFileType	4	(X/Y/Z)	C:\Users\italobelli\Desktop\GitHub\PTbot_officialCBL\Personal_Results\SHRUG21_noisy1.trc
DataRate	CameraRate	NumFrames	NumMarkers	Units	OrigDataRate	OrigDataStartFrame	OrigNumFrames
112.250000	112.250000	29	9	m	112.250000	113	450
Frame#	Time		gu		centelbow		EpL		centpxt8		centijc7		ij		ts		aa		ai
			X1	Y1	Z1	X2	Y2	Z2	X3	Y3	Z3	X4	Y4	Z4	X5	Y5	Z5	X6	Y6	Z6	X7	Y7	Z7	X8	Y8	Z8	X9	Y9	Z9

113	0.99777	-0.080251	-0.018424	0.16597	-0.12106	-0.26051	0.17961	-0.10447	-0.2576	0.20709	-0.046816	-0.15316	-0.008669	-0.046816	0.031938	-0.008669	0	0	0	-0.13481	0.034695	0.05213	-0.1064	0.023391	0.16741	-0.15821	-0.076384	0.052372
114	1.0067	-0.080335	-0.018343	0.1659	-0.121	-0.26047	0.17963	-0.10442	-0.25756	0.20711	-0.046816	-0.15316	-0.008669	-0.046816	0.031938	-0.008669	0	0	0	-0.13481	0.034879	0.052029	-0.10649	0.02359	0.16732	-0.15821	-0.076186	0.052375
115	1.0156	-0.080429	-0.018145	0.16583	-0.12091	-0.26032	0.17968	-0.10435	-0.25739	0.20717	-0.046816	-0.15316	-0.008669	-0.046816	0.031938	-0.008669	0	0	0	-0.13482	0.035088	0.051899	-0.1066	0.023892	0.1672	-0.1582	-0.075953	0.05241
116	1.0245	-0.080533	-0.017832	0.16575	-0.12079	-0.26004	0.17978	-0.10425	-0.25708	0.20726	-0.046816	-0.15316	-0.008669	-0.046816	0.031938	-0.008669	0	0	0	-0.13482	0.035321	0.05174	-0.10673	0.024296	0.16705	-0.15819	-0.075686	0.052476
117	1.0334	-0.080648	-0.017407	0.16566	-0.12064	-0.25965	0.17991	-0.10414	-0.25665	0.2074	-0.046816	-0.15316	-0.008669	-0.046816	0.031938	-0.008669	0	0	0	-0.13483	0.035576	0.051553	-0.10687	0.024799	0.16687	-0.15818	-0.075387	0.052572
118	1.0423	-0.080773	-0.016875	0.16556	-0.12047	-0.25914	0.18007	-0.104	-0.2561	0.20756	-0.046816	-0.15316	-0.008669	-0.046816	0.031938	-0.008669	0	0	0	-0.13484	0.035853	0.051339	-0.10702	0.025397	0.16665	-0.15816	-0.075056	0.052696
119	1.0512	-0.080907	-0.01624	0.16545	-0.12028	-0.25853	0.18026	-0.10385	-0.25543	0.20776	-0.046816	-0.15316	-0.008669	-0.046816	0.031938	-0.008669	0	0	0	-0.13484	0.036151	0.0511	-0.10719	0.026086	0.16641	-0.15814	-0.074695	0.052848
120	1.0601	-0.08105	-0.015507	0.16534	-0.12007	-0.25782	0.18049	-0.10368	-0.25465	0.20799	-0.046816	-0.15316	-0.008669	-0.046816	0.031938	-0.008669	0	0	0	-0.13485	0.036468	0.050836	-0.10737	0.026861	0.16613	-0.15811	-0.074306	0.053026
121	1.069	-0.081201	-0.01468	0.16521	-0.11983	-0.25701	0.18074	-0.1035	-0.25376	0.20825	-0.046816	-0.15316	-0.008669	-0.046816	0.031938	-0.008669	0	0	0	-0.13486	0.036805	0.050549	-0.10756	0.027719	0.16583	-0.15808	-0.07389	0.05323
122	1.078	-0.081361	-0.013764	0.16509	-0.11957	-0.25611	0.18102	-0.1033	-0.25277	0.20853	-0.046816	-0.15316	-0.008669	-0.046816	0.031938	-0.008669	0	0	0	-0.13486	0.037159	0.05024	-0.10777	0.028655	0.16551	-0.15805	-0.073448	0.053457
123	1.0869	-0.081529	-0.012762	0.16495	-0.1193	-0.25512	0.18133	-0.10308	-0.25168	0.20885	-0.046816	-0.15316	-0.008669	-0.046816	0.031938	-0.008669	0	0	0	-0.13487	0.037529	0.049911	-0.10798	0.029666	0.16516	-0.15802	-0.072982	0.053707
124	1.0958	-0.081705	-0.01168	0.16481	-0.11901	-0.25405	0.18167	-0.10285	-0.2505	0.20919	-0.046816	-0.15316	-0.008669	-0.046816	0.031938	-0.008669	0	0	0	-0.13488	0.037916	0.049561	-0.10821	0.030747	0.16479	-0.15798	-0.072494	0.053979
125	1.1047	-0.081888	-0.010522	0.16466	-0.11869	-0.25289	0.18203	-0.1026	-0.24924	0.20956	-0.046816	-0.15316	-0.008669	-0.046816	0.031938	-0.008669	0	0	0	-0.13489	0.038317	0.049192	-0.10845	0.031895	0.1644	-0.15794	-0.071984	0.054271
126	1.1136	-0.082078	-0.009291	0.16451	-0.11837	-0.25167	0.18242	-0.10234	-0.24789	0.20995	-0.046816	-0.15316	-0.008669	-0.046816	0.031938	-0.008669	0	0	0	-0.1349	0.038731	0.048807	-0.1087	0.033106	0.16399	-0.1579	-0.071454	0.054583
127	1.1225	-0.082274	-0.007993	0.16436	-0.11803	-0.25037	0.18282	-0.10208	-0.24647	0.21036	-0.046816	-0.15316	-0.008669	-0.046816	0.031938	-0.008669	0	0	0	-0.13491	0.039159	0.048404	-0.10895	0.034375	0.16355	-0.15785	-0.070905	0.054912
128	1.1314	-0.082477	-0.0066317	0.1642	-0.11767	-0.24901	0.18325	-0.1018	-0.24497	0.21079	-0.046816	-0.15316	-0.008669	-0.046816	0.031938	-0.008669	0	0	0	-0.13492	0.039598	0.047987	-0.10922	0.035698	0.1631	-0.1578	-0.070339	0.055258
129	1.1403	-0.082685	-0.0052118	0.16403	-0.1173	-0.24759	0.1837	-0.10151	-0.24341	0.21124	-0.046816	-0.15316	-0.008669	-0.046816	0.031938	-0.008669	0	0	0	-0.13492	0.040048	0.047555	-0.10949	0.037072	0.16264	-0.15776	-0.069758	0.05562
130	1.1492	-0.082899	-0.0037374	0.16386	-0.11692	-0.24611	0.18417	-0.10121	-0.24179	0.21172	-0.046816	-0.15316	-0.008669	-0.046816	0.031938	-0.008669	0	0	0	-0.13493	0.040507	0.04711	-0.10978	0.038492	0.16216	-0.15771	-0.069163	0.055997
131	1.1581	-0.083118	-0.0022132	0.16369	-0.11653	-0.24458	0.18465	-0.1009	-0.24011	0.21221	-0.046816	-0.15316	-0.008669	-0.046816	0.031938	-0.008669	0	0	0	-0.13494	0.040975	0.046653	-0.11007	0.039955	0.16167	-0.15765	-0.068554	0.056386
132	1.167	-0.083342	-0.00064331	0.16352	-0.11613	-0.243	0.18515	-0.10059	-0.23838	0.21271	-0.046816	-0.15316	-0.008669	-0.046816	0.031938	-0.008669	0	0	0	-0.13496	0.04145	0.046186	-0.11036	0.041456	0.16116	-0.1576	-0.067935	0.056788
133	1.1759	-0.08357	0.00096772	0.16334	-0.11573	-0.24139	0.18566	-0.10026	-0.23661	0.21323	-0.046816	-0.15316	-0.008669	-0.046816	0.031938	-0.008669	0	0	0	-0.13497	0.041932	0.045709	-0.11066	0.042991	0.16064	-0.15754	-0.067305	0.057201
134	1.1849	-0.083802	0.0026155	0.16316	-0.11531	-0.23973	0.18619	-0.099937	-0.23479	0.21376	-0.046816	-0.15316	-0.008669	-0.046816	0.031938	-0.008669	0	0	0	-0.13498	0.04242	0.045224	-0.11097	0.044557	0.16012	-0.15749	-0.066667	0.057623
135	1.1938	-0.084038	0.0042957	0.16298	-0.11489	-0.23804	0.18672	-0.099605	-0.23293	0.21431	-0.046816	-0.15316	-0.008669	-0.046816	0.031938	-0.008669	0	0	0	-0.13499	0.042912	0.044731	-0.11129	0.046149	0.15958	-0.15743	-0.066022	0.058054
136	1.2027	-0.084278	0.0060039	0.1628	-0.11446	-0.23632	0.18727	-0.099269	-0.23105	0.21486	-0.046816	-0.15316	-0.008669	-0.046816	0.031938	-0.008669	0	0	0	-0.135	0.043407	0.044232	-0.11161	0.047763	0.15904	-0.15737	-0.065371	0.058492
137	1.2116	-0.08452	0.0077356	0.16261	-0.11403	-0.23458	0.18783	-0.09893	-0.22913	0.21543	-0.046816	-0.15316	-0.008669	-0.046816	0.031938	-0.008669	0	0	0	-0.13501	0.043906	0.043728	-0.11193	0.049396	0.15849	-0.15731	-0.064715	0.058937
138	1.2205	-0.084765	0.0094866	0.16243	-0.1136	-0.23282	0.1884	-0.098588	-0.2272	0.216	-0.046816	-0.15316	-0.008669	-0.046816	0.031938	-0.008669	0	0	0	-0.13502	0.044405	0.043221	-0.11226	0.051043	0.15794	-0.15725	-0.064057	0.059386
139	1.2294	-0.085012	0.011252	0.16225	-0.11316	-0.23104	0.18897	-0.098245	-0.22525	0.21658	-0.046816	-0.15316	-0.008669	-0.046816	0.031938	-0.008669	0	0	0	-0.13504	0.044905	0.04271	-0.11259	0.0527	0.15739	-0.15719	-0.063398	0.059839
140	1.2383	-0.085262	0.013028	0.16206	-0.11273	-0.22925	0.18955	-0.097901	-0.22329	0.21717	-0.046816	-0.15316	-0.008669	-0.046816	0.031938	-0.008669	0	0	0	-0.13505	0.045405	0.042198	-0.11292	0.054363	0.15683	-0.15713	-0.062738	0.060295
141	1.2472	-0.085512	0.014811	0.16188	-0.11229	-0.22746	0.19013	-0.097558	-0.22132	0.21776	-0.046816	-0.15316	-0.008669	-0.046816	0.031938	-0.008669	0	0	0	-0.13506	0.045903	0.041685	-0.11325	0.056029	0.15627	-0.15707	-0.06208	0.060753
